# xmcd
#
# Track frame offsets: 
#        150
#        20430
#        43221
#        63111
#        89784
#        109857
#        129734
#        149167
#        169199
#        190521
#        216167
#
# Disc length: 3115 seconds
#
# Revision: 2
# Processed by: cddbd v1.5.2PL0 Copyright (c) Steve Scherf et al.
# Submitted via: ExactAudioCopyFreeDBPlugin 1.0
#
DISCID=a70c290b
DTITLE=Anthony Hamilton - Southern Comfort
DYEAR=2007
DGENRE=R&B
TTITLE0=They Don't Know
TTITLE1=Magnolia's Room
TTITLE2=Why
TTITLE3=Don't Say What You Won't Do
TTITLE4=Glad U Called
TTITLE5=Fallin In Love Again
TTITLE6=Trouble
TTITLE7=Never Give Up
TTITLE8=Better Love
TTITLE9=Please
TTITLE10=Sailin Away
EXTD=
EXTT0=
EXTT1=
EXTT2=
EXTT3=
EXTT4=
EXTT5=
EXTT6=
EXTT7=
EXTT8=
EXTT9=
EXTT10=
PLAYORDER=
